<?xml version="1.0" encoding="utf-8"?>
<!-- Generator: Adobe Illustrator 16.0.0, SVG Export Plug-In . SVG Version: 6.00 Build 0)  -->
<!DOCTYPE svg PUBLIC "-//W3C//DTD SVG 1.1//EN" "http://www.w3.org/Graphics/SVG/1.1/DTD/svg11.dtd">
<svg version="1.1" id="Layer_1" xmlns="http://www.w3.org/2000/svg" xmlns:xlink="http://www.w3.org/1999/xlink" x="0px" y="0px"
	 width="58px" height="55px" viewBox="0 0 58 55" enable-background="new 0 0 58 55" xml:space="preserve">
<g style="fill: #ff521d;">
	<path d="M13.689,8.845c2.77,0,4.836,1.706,4.836,4.604c0,2.756-2.067,4.707-4.836,4.707c-2.769,0-4.836-1.807-4.836-4.707
		C8.854,10.811,10.791,8.845,13.689,8.845z M13.689,16.206c1.729,0,2.626-1.222,2.626-2.756c0-1.664-1.157-2.655-2.626-2.655
		c-1.508,0-2.626,0.991-2.626,2.655C11.063,15.01,12.233,16.206,13.689,16.206z"/>
	<path d="M26.586,14.334h-3.315V18h-2.08V9h2.08v3.384h3.315V9h2.08v9h-2.08V14.334z"/>
	<path d="M9.503,23h2.093l2.808,3.735L17.057,23h1.963v9h-2.08v-5.798l-2.535,3.549h-0.299l-2.522-3.51V32h-2.08V23z"/>
	<path d="M26.443,28.295V32h-2.08v-3.705L21.165,23h2.379l1.95,3.345L27.418,23h2.249L26.443,28.295z"/>
	<path d="M9.048,39.37c0-1.404,1.118-2.524,2.938-2.524c1.17,0,2.106,0.39,2.678,1.001l-1.118,1.56
		c-0.403-0.377-0.702-0.611-1.378-0.611c-0.572,0-0.91,0.159-0.91,0.575c0,1.508,3.796,1.144,3.796,4.108
		c0,1.586-1.365,2.678-3.12,2.678c-1.222,0-2.639-0.521-3.081-1.495l1.183-1.417c0.52,0.663,1.313,0.962,1.95,0.962
		c0.546,0,0.858-0.273,0.858-0.702C12.845,42.139,9.048,42.308,9.048,39.37z"/>
	<path d="M16.679,37h7.541v1.85h-2.73V46h-2.08v-7.15h-2.73V37z"/>
	<path d="M28.406,37h1.859l3.783,9h-2.223l-0.754-1.911H27.47L26.716,46h-2.093L28.406,37z M28.25,42.139h2.042l-1.014-2.574
		L28.25,42.139z"/>
	<path d="M34.45,37h7.541v1.85h-2.73V46h-2.08v-7.15h-2.73V37z"/>
	<path d="M43.81,39.37c0-1.404,1.118-2.524,2.938-2.524c1.17,0,2.106,0.39,2.678,1.001l-1.118,1.56
		c-0.403-0.377-0.702-0.611-1.378-0.611c-0.572,0-0.91,0.159-0.91,0.575c0,1.508,3.796,1.144,3.796,4.108
		c0,1.586-1.365,2.678-3.12,2.678c-1.222,0-2.639-0.521-3.081-1.495l1.183-1.417c0.52,0.663,1.313,0.962,1.95,0.962
		c0.546,0,0.858-0.273,0.858-0.702C47.606,42.139,43.81,42.308,43.81,39.37z"/>
	<path d="M0,0v55h58V0H0z M56,53H2V2h54V53z"/>
</g>
</svg>
