<?xml version="1.0" encoding="utf-8"?>
<!-- Generator: Adobe Illustrator 16.0.0, SVG Export Plug-In . SVG Version: 6.00 Build 0)  -->
<!DOCTYPE svg PUBLIC "-//W3C//DTD SVG 1.1//EN" "http://www.w3.org/Graphics/SVG/1.1/DTD/svg11.dtd">
<svg version="1.1" id="Layer_1" xmlns="http://www.w3.org/2000/svg" xmlns:xlink="http://www.w3.org/1999/xlink" x="0px" y="0px"
	 width="44px" height="44px" viewBox="0 0 44 44" enable-background="new 0 0 44 44" xml:space="preserve">
<rect x="4" y="14" fill="#FA3B00" width="11" height="16"/>
<path fill="#D00013" d="M3,15.76C1.173,17.227,0,19.475,0,22s1.173,4.773,3,6.239V15.76z"/>
<path fill="#FFEBC3" d="M16,30c14,0,19,11,19,11V3c0,0-5,11-19,11V30z"/>
<path fill="#EC0000" d="M6,31l4,11c0,0,1,2,2,2s6,0,6,0s1,0,1-1s-1-1-1-1s-0.657,0-1-1s-4-10-4-10H6z"/>
<path fill="#FF3800" d="M38,0c-1.104,0-2,1.896-2,3v38c0,1.104,0.896,3,2,3s2-1.896,2-3V3C40,1.896,39.104,0,38,0z"/>
<path fill="#FFD17E" d="M41,17l2,1c0.521,0.208,1,1.448,1,2v4c0,0.553-0.416,1.729-1,2l-2,1V17z"/>
<path fill="#FFFFFF" d="M16,16c14,0,19-8,19-8v7c0,0-7,4-19,4V16z"/>
<rect x="5" y="16" fill="#FFD17E" width="5" height="2"/>
</svg>
